<?xml version="1.0" encoding="UTF-8"?>
<!-- Generated by Pixelmator Pro 3.6.13 -->
<svg width="2824" height="2824" viewBox="0 0 2824 2824" xmlns="http://www.w3.org/2000/svg">
    <g id="Background">
        <path id="Path-1" fill="#f6ce25" stroke="none" d="M 577.439026 1.080078 C 576.910278 1.620117 446.697052 2.025146 288.061615 2.025146 C 0.402684 2.025146 -0.390461 2.025146 0.006111 4.725342 C 0.27052 6.210693 0.799297 221.960205 1.195869 484.019531 C 1.592482 746.213623 1.85685 1121.008179 1.724646 1317.046143 C 1.724646 1513.084106 1.724646 1697.781128 1.85685 1727.483887 C 2.121258 1757.186646 2.121258 1830.093262 1.989054 1889.498779 C 1.85685 1948.904297 1.724646 2176.400146 1.592482 2395.120361 C 1.460278 2613.840332 1.85685 2799.347412 2.517831 2807.583252 L 3.575425 2822.299561 C 21.025297 2822.839844 41.780113 2822.974609 61.080765 2822.974609 C 80.381378 2822.839844 442.598907 2822.839844 866.155457 2822.70459 C 1289.712036 2822.569824 1655.234497 2822.70459 1678.500977 2823.109619 C 1701.7677 2823.379639 1758.612061 2823.244873 1804.748413 2822.70459 C 1863.311279 2822.029541 1889.0896 2822.164551 1890.014893 2823.244873 C 1890.808228 2824.054688 1893.319824 2824.189941 1896.624756 2823.649658 C 1899.533081 2823.109619 1994.449829 2822.569824 2107.477539 2822.569824 C 2220.505371 2822.569824 2317.801758 2822.70459 2323.618408 2822.70459 C 2329.435303 2822.70459 2336.837891 2822.839844 2340.142822 2822.974609 C 2343.447754 2823.109619 2357.989502 2822.974609 2372.531006 2822.839844 C 2387.07251 2822.70459 2439.157959 2822.70459 2488.202637 2822.839844 C 2537.247559 2822.974609 2589.332764 2823.379639 2603.874268 2823.784668 C 2620.927734 2824.189941 2630.710205 2824.054688 2631.635498 2823.109619 C 2632.296387 2822.43457 2634.543701 2821.759521 2636.526611 2821.759521 C 2638.509521 2821.759521 2640.492676 2822.299561 2640.88916 2823.109619 C 2641.285889 2824.054688 2668.650391 2824.189941 2721.264648 2823.649658 C 2765.021729 2823.244873 2805.209229 2822.839844 2810.49707 2822.70459 L 2820.015137 2822.43457 C 2820.279297 2787.871338 2820.279297 2716.719727 2820.147461 2641.787842 C 2820.015137 2552.274658 2820.411621 2505.560547 2821.336914 2505.155518 C 2822.262207 2504.750244 2822.394531 2449.800293 2821.865967 2342.060303 C 2821.469238 2252.817383 2821.336914 2153.718018 2821.469238 2121.720215 C 2821.733643 2089.722168 2821.865967 1950.929443 2821.733643 1813.216797 C 2821.601318 1675.50415 2821.469238 1542.786865 2821.469238 1518.2146 C 2821.336914 1493.642456 2821.205078 1224.832642 2821.072754 920.784668 C 2820.94043 497.250732 2821.205078 367.638916 2822.394531 366.828613 C 2823.452393 366.288818 2823.980957 361.968506 2823.980957 355.082764 C 2823.980957 348.196777 2823.452393 343.876465 2822.394531 343.201416 C 2821.205078 342.526367 2821.072754 303.777832 2821.865967 178.216309 C 2822.394531 88.028076 2822.92334 11.476074 2823.055664 8.10083 C 2823.320068 2.565186 2823.055664 2.025146 2820.015137 1.620117 C 2818.164551 1.350098 2751.272949 1.215088 2671.294434 1.350098 C 2591.315674 1.350098 2216.539551 1.485352 1838.458374 1.620117 C 1460.377319 1.755127 1124.334717 1.890137 1091.549927 1.755127 C 1058.897583 1.755127 944.679993 1.755127 837.997742 1.890137 C 731.183167 1.890137 643.537109 1.620117 643.272705 1.080078 C 643.008362 0.405029 628.334534 0 610.6203 0 C 592.906006 0 577.967834 0.405029 577.439026 1.080078 Z"/>
        <path id="Path-2" fill="#141008" stroke="none" d="M 2114.401855 161.834473 C 2112.121826 162.352539 2109.220215 162.456543 2107.872803 162.145508 C 2106.629395 161.834473 2103.105957 162.041748 2100.100342 162.559814 C 2097.199219 163.181641 2091.706299 163.906982 2087.97583 164.218018 C 2084.245117 164.528809 2079.167236 165.047119 2076.576172 165.254395 C 2073.985596 165.56543 2070.565918 166.083496 2068.804199 166.394287 C 2067.04248 166.808838 2063.311768 167.223389 2060.513672 167.430908 C 2057.611816 167.53418 2053.466797 167.845215 2051.186768 168.156006 C 2048.906982 168.467041 2045.17627 168.985107 2042.896362 169.399414 C 2040.616455 169.710449 2038.129272 170.643311 2037.300293 171.264893 C 2036.471436 171.990479 2033.466064 172.612305 2030.564209 172.612305 C 2027.66272 172.715576 2023.413818 173.233887 2021.133911 173.855713 C 2018.854126 174.477539 2015.123291 175.306152 2012.843384 175.617676 C 2010.563599 175.928467 2007.9729 176.342773 2007.143921 176.550049 C 2006.314697 176.757568 2004.864014 177.171875 2004.03479 177.48291 C 2003.205811 177.793701 2000.615112 178.622803 1998.335327 179.140869 C 1996.05542 179.762451 1992.531982 180.177002 1990.562866 180.073486 C 1988.593872 180.073486 1986.832153 180.488037 1986.624756 181.213379 C 1986.521362 181.835205 1985.174194 182.353516 1983.723267 182.353516 C 1982.168823 182.353516 1977.919922 183.493652 1974.085693 184.840576 C 1970.354858 186.187744 1966.209839 187.327881 1964.965942 187.224121 C 1963.722656 187.224121 1961.235474 187.845947 1959.266357 188.882324 C 1957.401123 189.814697 1954.91394 190.644043 1953.773926 190.851318 C 1952.634155 191.05835 1951.183228 191.576416 1950.665039 191.887207 C 1950.146973 192.302246 1944.96521 193.54541 1939.265747 194.685303 C 1933.565918 195.825439 1928.798828 197.276367 1928.591553 197.898193 C 1928.488037 198.41626 1927.555298 198.93457 1926.622803 198.93457 C 1925.586548 198.93457 1919.36853 200.90332 1912.839722 203.390625 C 1906.311035 205.877686 1899.264038 208.675537 1897.295288 209.608398 C 1895.326294 210.437256 1892.320923 211.473633 1890.559204 211.784424 C 1888.797485 212.095459 1886.310303 213.235596 1884.859375 214.271729 C 1883.408813 215.411377 1880.403442 216.862305 1878.123657 217.484131 C 1875.84375 218.209961 1872.838379 219.246094 1871.387573 219.867676 C 1869.936646 220.489502 1866.516968 222.043945 1863.615112 223.391357 C 1860.817139 224.738281 1856.361206 226.811035 1853.770508 227.950928 C 1851.179565 229.194336 1848.381592 230.541748 1847.552612 231.060059 C 1846.723267 231.578125 1844.339966 232.821289 1842.37085 233.650635 C 1840.401855 234.583496 1835.945923 236.863281 1832.526001 238.832031 C 1829.106079 240.801025 1825.479004 242.459229 1824.546631 242.459229 C 1823.510254 242.459229 1822.68103 242.874023 1822.68103 243.49585 C 1822.68103 244.013916 1821.4375 244.946533 1819.883301 245.464355 C 1818.224854 245.982422 1813.250732 248.781006 1808.69104 251.682373 C 1804.131226 254.583984 1797.602539 258.418457 1794.182495 260.076416 C 1790.762939 261.734863 1786.721313 264.22168 1785.16687 265.672607 C 1783.508667 267.123535 1782.265015 269.092285 1782.265015 269.921387 C 1782.265015 270.750732 1785.788574 278.83374 1790.037476 287.74585 C 1794.389893 296.761475 1797.91333 304.326904 1797.91333 304.637695 C 1797.91333 304.94873 1798.431396 305.881348 1799.15686 306.710205 C 1799.882324 307.539551 1801.436768 310.337158 1802.473022 312.928223 C 1803.613159 315.518799 1805.581909 319.249756 1806.929321 321.21875 C 1808.172852 323.1875 1809.209106 325.881836 1809.209106 327.125488 C 1809.209106 328.472656 1809.727295 329.612793 1810.245483 329.716553 C 1810.867065 329.923584 1811.489014 331.374512 1811.799805 333.13623 C 1812.007202 334.794434 1813.561523 339.250244 1815.219727 342.980713 C 1816.878052 346.711914 1820.505005 355.312988 1823.199219 362.152832 C 1825.997192 368.992432 1828.588135 374.795654 1829.002563 375.106445 C 1829.417114 375.417725 1832.111328 381.531738 1835.013184 388.785645 C 1837.914673 396.143555 1840.29834 402.983398 1840.29834 404.123047 C 1840.29834 405.262939 1840.816528 406.402588 1841.334595 406.713867 C 1841.852783 407.024902 1842.37085 408.37207 1842.37085 409.822998 C 1842.37085 411.273438 1842.682007 412.62085 1843.200195 412.828369 C 1843.614502 413.035156 1845.06543 416.144043 1846.412476 419.771484 C 1847.759644 423.398438 1849.728638 428.372803 1850.764893 430.756104 L 1852.734009 435.212646 C 1861.128296 431.37793 1865.998779 429.0979 1868.796875 427.647217 C 1871.698608 426.196289 1877.294312 423.294922 1881.232422 421.221924 C 1885.170532 419.149414 1891.077393 415.833252 1894.186523 413.968018 C 1897.295288 411.999268 1900.50769 410.44458 1901.233154 410.341064 C 1901.958618 410.341064 1903.202148 409.719238 1903.927612 408.993652 C 1904.549316 408.37207 1908.383545 406.402588 1912.321655 404.744873 C 1916.363281 403.086914 1923.306396 399.978027 1927.866333 397.801758 C 1932.426147 395.625488 1936.88208 393.76001 1937.71106 393.76001 C 1938.540283 393.76001 1940.198242 393.034668 1941.338257 392.205566 C 1942.478027 391.272949 1944.240112 390.651123 1945.276367 390.651123 C 1946.208862 390.651123 1948.281372 390.029297 1949.939575 389.200439 C 1951.494263 388.371094 1955.74292 386.713135 1959.473755 385.469482 C 1963.204468 384.226318 1967.763916 382.568115 1969.629517 381.73877 C 1971.391235 380.909912 1973.567261 380.288086 1974.292969 380.288086 C 1974.914673 380.288086 1979.474365 378.837402 1984.344971 377.075684 C 1989.215454 375.313965 1995.018799 373.44873 1997.29895 373.033936 C 1999.578857 372.619385 2003.827759 371.686523 2006.625732 370.961426 C 2009.527344 370.339844 2013.465332 369.303223 2015.434448 368.785156 C 2017.403198 368.370361 2021.445068 367.437988 2024.242798 366.816406 C 2027.144531 366.194336 2034.605835 364.536133 2040.823853 363.188965 C 2047.041748 361.737793 2053.05249 360.80542 2054.088623 361.116211 C 2055.02124 361.427734 2056.575684 361.116211 2057.404541 360.598145 C 2058.233887 360.080078 2059.788086 359.769043 2060.824463 359.976563 C 2061.757324 360.183838 2067.767578 359.354736 2073.985596 358.2146 C 2080.203613 357.074951 2087.043213 356.14209 2089.219238 356.038574 C 2091.291748 355.934814 2093.260742 355.727539 2093.468018 355.416748 C 2093.778809 355.105957 2109.427246 354.898682 2128.18457 354.898682 C 2147.04541 354.898682 2162.797119 355.312988 2163.31543 355.727539 C 2163.72998 356.14209 2165.80249 356.452881 2167.771484 356.452881 C 2169.740479 356.452881 2176.580078 357.178467 2182.797852 358.007568 C 2189.015869 358.940186 2197.202393 360.080078 2200.93335 360.701904 C 2204.663818 361.323486 2210.985596 362.670898 2214.92334 363.707275 C 2218.861328 364.743408 2224.768311 366.298096 2227.877441 367.126953 C 2230.98584 367.956055 2237.307617 370.028564 2241.867676 371.583008 C 2246.427246 373.137451 2252.230469 375.313965 2254.821045 376.453857 C 2257.411865 377.490234 2260.832031 378.940918 2262.593506 379.77002 C 2264.355225 380.495117 2267.360596 381.73877 2269.32959 382.464111 C 2271.298584 383.189697 2275.029053 385.158691 2277.620117 386.713135 C 2280.210938 388.371094 2282.801514 389.61499 2283.31958 389.61499 C 2283.837891 389.718506 2288.293945 392.102051 2293.164551 395.107422 C 2298.035156 398.008789 2305.911377 403.812256 2310.781982 407.957764 C 2315.652344 412.102783 2324.357666 420.185791 2330.160645 426.092773 C 2335.964111 431.999756 2340.730957 437.284912 2340.730957 437.802979 C 2340.730957 438.321533 2342.38916 440.082764 2344.46167 441.637207 C 2346.430908 443.295898 2348.089111 445.264648 2348.089111 446.093506 C 2348.089111 446.922363 2348.399902 447.751709 2348.917969 447.855225 C 2349.33252 448.0625 2350.575928 449.513428 2351.81958 451.275146 C 2352.959473 452.933105 2355.861328 458.322021 2358.244873 463.192627 C 2360.628174 468.063232 2363.84082 473.348389 2365.187988 475.110107 C 2366.638672 476.768311 2367.882324 478.944336 2367.778564 479.773438 C 2367.778564 480.602539 2368.918701 483.607666 2370.369629 486.509766 C 2371.716553 489.307861 2372.960205 492.312744 2372.960205 492.934814 C 2372.960205 493.659912 2373.374756 494.281738 2373.996582 494.281738 C 2374.618408 494.281738 2375.032715 495.007324 2375.032715 495.836182 C 2375.032715 496.665527 2375.758301 499.152344 2376.794434 501.224854 C 2377.727295 503.401367 2379.385498 508.168457 2380.421875 511.89917 C 2381.561768 515.629639 2383.012451 520.914795 2383.737549 523.81665 C 2384.463379 526.614746 2385.395996 529.723389 2385.810547 530.552734 C 2386.328369 531.381592 2386.328369 533.039551 2386.017822 534.179688 C 2385.706543 535.319824 2385.810547 536.873779 2386.432129 537.49585 C 2386.950195 538.221191 2387.261475 539.568604 2386.950195 540.397705 C 2386.639404 541.226563 2386.846436 542.15918 2387.468506 542.470215 C 2388.090332 542.781006 2388.401123 543.817383 2388.297607 544.75 C 2388.194092 545.786133 2388.401123 547.34082 2388.919189 548.169678 C 2389.4375 548.999023 2390.059326 553.454834 2390.266357 558.014648 C 2390.473633 562.574463 2390.681396 566.408691 2390.888672 566.512207 C 2390.991943 566.615967 2390.991943 576.357422 2390.888672 588.274658 C 2390.888672 600.088867 2390.681396 609.830322 2390.577393 609.830322 C 2390.473633 609.830322 2390.163086 613.145996 2389.955566 617.084229 C 2389.748291 621.022217 2389.126953 624.75293 2388.504883 625.374756 C 2387.986572 625.892822 2387.676025 627.240234 2387.986572 628.172607 C 2388.297607 629.208984 2388.090332 630.763428 2387.468506 631.592773 C 2386.846436 632.421631 2386.639404 633.561768 2386.950195 634.18335 C 2387.261475 634.70166 2386.846436 638.328369 2386.017822 642.162842 C 2385.188721 646.10083 2384.048828 652.215088 2383.323242 655.945801 C 2382.70166 659.676514 2380.836426 668.484863 2379.178223 675.635254 C 2377.416504 682.786133 2375.23999 691.18042 2374.307617 694.289063 C 2373.270996 697.397949 2372.442139 700.196289 2372.338379 700.50708 C 2372.338379 700.817871 2371.509521 702.786621 2370.57666 704.859619 C 2369.540283 707.035889 2368.814697 709.626709 2368.814697 710.559082 C 2368.814697 711.595703 2367.882324 714.49707 2366.742188 717.087891 C 2365.499023 719.678467 2364.151611 722.580322 2363.633545 723.512939 C 2363.011719 724.549072 2362.597412 726.311035 2362.597412 727.450928 C 2362.597412 728.59082 2362.182861 729.730713 2361.560791 730.041504 C 2360.938965 730.352783 2360.524658 731.49292 2360.524658 732.632568 C 2360.524658 733.772461 2359.488281 736.881592 2358.244873 739.575684 C 2357.001465 742.373779 2356.068359 744.861084 2356.172119 745.275635 C 2356.275391 745.793701 2355.965088 746.104492 2355.343018 746.104492 C 2354.721191 746.104492 2354.513916 746.519043 2354.825195 747.140869 C 2355.135986 747.658936 2353.581299 751.596924 2351.508789 755.638184 C 2349.33252 759.783691 2347.467041 763.928711 2347.363525 764.758057 C 2347.15625 765.586914 2346.430908 767.037842 2345.601807 767.866943 C 2344.876465 768.696045 2343.840088 770.561279 2343.425537 772.012207 C 2342.907227 773.462891 2341.974854 775.224609 2341.145508 775.846191 C 2340.42041 776.572021 2339.798584 777.919189 2339.798584 778.748047 C 2339.798584 779.577393 2338.762207 782.478882 2337.414795 785.173096 C 2336.067627 787.971313 2333.476807 792.945435 2331.611816 796.365356 C 2329.746338 799.785278 2326.637207 804.655884 2324.875732 807.246826 C 2323.010498 809.837524 2320.833984 813.568115 2320.108643 815.537109 C 2319.279785 817.506104 2317.310547 821.133423 2315.756348 823.516479 C 2314.201904 826.003906 2312.854492 828.180054 2312.854492 828.490845 C 2312.854492 828.802002 2311.507324 830.770752 2309.849365 832.843262 C 2308.294678 835.019897 2306.532959 837.921143 2306.118408 839.37207 C 2305.600098 840.822998 2304.149658 843.620972 2302.80249 845.589966 C 2301.558594 847.559082 2300.004395 849.838867 2299.382324 850.460571 C 2298.864014 851.186035 2298.346191 852.118774 2298.346191 852.533081 C 2298.346191 853.05127 2297.205811 855.020264 2295.859131 856.98938 C 2294.615479 858.958374 2289.537598 866.626953 2284.770752 874.088501 C 2280.003418 881.549805 2275.547607 888.285889 2275.029053 889.218384 C 2274.510986 890.151367 2272.127441 893.778076 2269.847656 897.405273 C 2267.567871 900.928833 2264.251709 905.592285 2262.38623 907.664917 C 2260.520996 909.737427 2259.070068 911.706421 2258.966553 912.12085 C 2258.966553 912.638916 2255.961182 917.509766 2252.437744 923.002075 C 2248.810547 928.598267 2245.080078 933.883179 2244.043457 934.712524 C 2243.111084 935.541748 2242.281982 936.681519 2242.281982 937.303223 C 2242.385742 937.821289 2239.173096 942.795654 2235.338623 948.184326 C 2231.50415 953.573364 2227.048096 959.894775 2225.286621 962.174438 C 2223.628418 964.454224 2221.762939 966.630615 2221.141357 966.941772 C 2220.623047 967.356079 2218.757568 970.257935 2216.996094 973.470215 C 2215.234375 976.682861 2213.576172 979.27356 2213.161621 979.27356 C 2212.643555 979.27356 2210.052734 982.38269 2207.358154 986.217041 C 2204.560303 990.154785 2202.072998 993.989136 2201.762451 994.818359 C 2201.451416 995.647339 2198.446045 999.688843 2195.129883 1003.626953 C 2191.709961 1007.668579 2187.668457 1012.74646 2185.906738 1015.026367 C 2184.145264 1017.306152 2182.279785 1019.896851 2181.761475 1020.82959 C 2181.243408 1021.762451 2179.37793 1024.456665 2177.616211 1026.840332 C 2175.854736 1029.327515 2173.056641 1032.954468 2171.191406 1035.026978 C 2169.325684 1037.203369 2167.875 1039.275879 2167.875 1039.897827 C 2167.875 1040.416016 2166.320557 1042.592041 2164.351563 1044.561035 C 2162.486328 1046.530151 2159.584473 1050.26062 2157.92627 1052.851563 C 2156.372314 1055.442261 2154.713867 1057.722168 2154.299561 1058.032959 C 2153.78125 1058.343872 2150.775879 1062.489258 2147.563477 1067.359741 C 2144.24707 1072.230469 2140.412842 1077.619263 2138.858398 1079.381104 C 2137.407471 1081.246338 2135.02417 1084.044312 2133.573242 1085.80603 C 2132.122314 1087.464233 2130.25708 1090.262085 2129.428223 1091.81665 C 2128.599121 1093.474609 2124.350342 1099.278076 2120.101318 1104.666748 C 2115.852539 1110.055664 2111.292725 1115.859131 2110.049072 1117.620728 C 2108.701904 1119.382446 2106.422119 1122.595215 2104.867676 1124.874878 C 2103.209473 1127.154785 2099.167969 1132.750732 2095.748291 1137.310547 C 2092.328369 1141.870239 2088.908447 1146.326294 2088.182861 1147.155396 C 2087.457764 1147.984497 2085.48877 1150.36792 2083.727051 1152.337036 C 2081.965332 1154.30603 2077.923584 1159.591064 2074.710938 1164.151001 C 2071.498535 1168.606934 2067.767578 1173.99585 2066.52417 1176.068481 C 2065.384277 1178.141113 2063.000732 1181.146484 2061.446533 1182.907837 C 2059.788086 1184.669556 2056.575684 1188.815063 2054.295654 1192.234863 C 2052.015869 1195.654663 2048.699707 1200.317993 2047.041748 1202.5979 C 2045.280029 1204.877686 2043.725342 1206.950317 2043.414551 1207.261108 C 2043.103638 1207.572266 2040.40918 1211.199219 2037.403809 1215.240723 C 2034.502319 1219.385864 2031.290039 1223.63501 2030.356934 1224.567627 C 2029.527954 1225.603882 2026.108276 1230.163696 2022.792114 1234.723511 C 2019.476074 1239.283203 2015.745239 1243.946411 2014.501709 1245.086426 C 2013.258057 1246.226318 2012.221802 1247.780884 2012.325317 1248.402588 C 2012.325317 1249.128174 2011.703613 1250.060791 2010.978149 1250.47522 C 2010.252808 1250.993408 2007.454712 1254.620361 2004.864014 1258.558472 C 2002.169556 1262.496582 1998.853394 1267.159912 1997.402466 1268.921631 C 1996.05542 1270.683228 1993.982788 1272.963135 1992.946533 1274.103027 C 1991.910034 1275.24292 1990.562866 1277.108398 1990.0448 1278.248413 C 1989.422852 1279.388184 1987.039429 1282.600708 1984.656006 1285.502563 C 1982.272339 1288.300415 1976.469116 1295.554443 1971.702026 1301.565308 C 1967.038818 1307.575928 1959.577271 1317.317017 1955.328369 1323.327637 C 1950.97583 1329.338257 1944.96521 1337.732422 1941.856445 1341.981201 C 1938.747559 1346.230103 1935.845825 1349.857056 1935.431396 1349.960815 C 1934.91333 1350.168091 1932.529663 1353.380615 1929.938965 1357.214844 C 1927.348267 1361.152954 1923.410156 1366.852661 1921.130249 1369.961426 C 1918.850464 1373.070435 1915.119629 1377.526489 1912.839722 1379.806396 C 1910.560181 1382.086182 1908.694702 1384.573364 1908.694702 1385.19519 C 1908.694702 1385.920654 1907.243774 1388.304077 1905.585815 1390.376587 C 1903.824097 1392.553101 1898.849731 1398.770874 1894.393555 1404.263306 C 1890.041138 1409.755737 1882.786865 1419.393433 1878.330933 1425.507568 C 1873.978271 1431.725342 1867.242432 1440.741333 1863.511597 1445.611816 C 1859.780884 1450.482422 1855.946533 1455.353271 1855.013794 1456.493164 C 1853.977539 1457.633057 1850.454102 1462.192871 1847.034424 1466.752563 C 1843.614502 1471.20874 1840.091064 1475.87207 1839.262085 1477.115723 C 1838.432861 1478.359253 1836.774902 1480.328369 1835.635132 1481.571777 C 1834.494995 1482.815552 1832.940552 1484.577026 1832.31897 1485.406128 C 1831.593506 1486.338867 1830.971558 1487.271484 1830.971558 1487.582397 C 1830.971558 1487.893311 1829.417114 1490.06958 1827.655396 1492.453003 C 1825.790161 1494.940186 1823.510254 1497.634521 1822.68103 1498.670776 C 1821.852051 1499.603516 1820.608521 1501.054321 1819.986816 1501.779785 C 1819.365234 1502.505249 1817.706909 1504.784912 1816.359619 1506.753906 C 1815.012451 1508.723145 1808.898315 1516.495239 1802.887695 1523.853149 C 1796.77356 1531.314575 1790.866455 1538.257813 1789.622803 1539.397827 C 1788.379517 1540.537598 1787.343262 1541.884888 1787.446777 1542.506714 C 1787.446777 1543.02478 1786.099365 1544.890259 1784.441406 1546.651978 C 1782.783203 1548.413574 1780.607178 1551.21167 1779.467041 1552.973389 C 1778.430786 1554.838623 1776.150879 1558.776611 1774.38916 1561.78186 C 1772.523926 1564.890869 1770.762207 1568.414307 1770.45105 1569.657837 C 1769.933228 1571.730469 1770.347534 1572.14502 1773.767578 1572.766724 C 1775.840088 1573.077759 1800.400513 1573.077759 1828.380859 1572.766724 C 1856.361206 1572.352417 2037.714722 1571.834351 2231.50415 1571.626831 C 2425.293701 1571.316162 2588.201172 1570.797852 2593.486328 1570.486938 C 2602.813232 1569.96875 2603.020508 1569.865234 2603.74585 1567.067139 C 2604.263916 1565.512573 2604.574951 1521.262451 2604.574951 1468.72168 C 2604.574951 1391.723877 2604.263916 1372.863159 2603.227783 1371.827026 C 2602.191162 1370.790527 2595.766113 1370.376099 2577.838135 1370.168579 C 2564.573486 1369.961426 2540.220215 1369.85791 2523.74292 1369.961426 C 2507.265625 1370.065063 2487.886719 1370.272461 2480.736328 1370.272461 C 2473.585693 1370.376099 2457.108398 1370.376099 2443.947266 1370.376099 C 2430.786133 1370.272461 2408.712891 1370.168579 2394.722656 1370.168579 C 2380.732666 1370.168579 2350.679688 1370.168579 2327.881104 1370.272461 C 2305.082031 1370.272461 2259.381104 1370.272461 2226.322998 1370.376099 C 2193.264404 1370.479614 2163.72998 1370.894043 2160.724365 1371.308838 C 2157.822754 1371.723145 2155.335693 1371.827026 2155.335693 1371.515991 C 2155.335693 1371.205078 2158.237549 1367.785278 2161.760498 1363.950806 C 2165.387939 1360.013062 2170.776855 1353.173462 2173.885742 1348.613647 C 2176.994629 1344.157471 2181.036377 1339.07959 2182.797852 1337.317871 C 2184.66333 1335.556274 2187.357666 1332.550903 2188.705078 1330.581909 C 2190.052002 1328.612793 2191.917236 1326.022095 2192.953857 1324.88208 C 2193.886475 1323.74231 2197.720947 1318.871582 2201.451416 1314.000977 C 2205.182129 1309.130371 2211.192871 1301.461548 2214.612793 1296.901855 C 2218.135986 1292.342163 2223.421143 1285.813477 2226.426514 1282.393555 C 2229.431885 1278.973633 2232.955322 1274.724854 2234.302246 1272.859619 C 2235.649658 1271.0979 2238.654785 1267.159912 2241.142334 1264.050781 C 2243.525635 1261.045654 2245.908936 1258.040283 2246.32373 1257.522217 C 2246.738037 1257.004028 2249.121582 1253.998657 2251.712402 1250.889771 C 2254.302979 1247.780884 2257.204834 1244.361084 2258.137207 1243.324829 C 2259.173828 1242.288574 2260.00293 1241.148438 2260.00293 1240.630371 C 2260.00293 1240.21582 2261.557129 1238.246826 2263.422852 1236.27771 C 2265.288086 1234.308838 2267.671387 1231.303589 2268.811523 1229.54187 C 2269.847656 1227.780273 2273.578613 1223.013184 2276.998291 1218.86792 C 2280.521729 1214.619019 2285.289063 1208.815674 2287.672119 1205.914063 C 2290.05542 1202.908813 2292.024902 1200.00708 2292.128418 1199.489014 C 2292.128418 1198.970703 2293.579102 1196.794556 2295.34082 1194.825684 C 2296.998779 1192.856567 2300.004395 1189.33313 2301.973145 1187.053223 C 2303.941895 1184.77356 2307.46582 1180.835449 2309.745361 1178.244751 C 2311.921875 1175.653809 2313.786865 1173.270386 2313.890625 1172.752319 C 2313.890625 1172.337646 2316.170654 1169.125122 2318.86499 1165.498169 C 2321.663086 1161.974731 2324.564941 1157.933105 2325.290039 1156.482178 C 2326.118896 1155.031372 2327.466309 1153.062378 2328.29541 1151.922363 C 2329.228516 1150.886108 2331.611816 1147.984497 2333.580566 1145.60083 C 2335.549561 1143.113892 2338.658447 1139.279541 2340.31665 1137.103394 C 2342.078369 1134.927002 2345.705322 1130.160034 2348.399902 1126.429321 C 2351.093994 1122.69873 2355.654053 1116.377197 2358.555908 1112.439087 C 2361.457031 1108.501099 2364.669678 1104.252441 2365.809814 1103.112305 C 2366.949463 1101.972412 2369.644043 1098.241821 2371.923828 1094.821899 C 2374.100342 1091.402222 2378.141602 1086.013306 2380.836426 1082.904419 C 2383.530273 1079.795532 2387.261475 1074.821167 2389.126953 1072.023193 C 2390.991943 1069.12146 2395.344482 1063.11084 2398.76416 1058.551147 C 2402.184082 1053.991333 2406.22583 1048.602661 2407.883789 1046.633667 C 2409.541992 1044.664551 2412.546875 1040.623047 2414.412354 1037.824951 C 2416.381592 1034.923462 2418.557861 1032.33252 2419.282959 1031.814331 C 2420.008545 1031.400024 2420.630371 1030.467285 2420.630371 1029.741821 C 2420.630371 1029.120117 2421.770264 1027.358398 2423.013916 1025.907471 C 2424.361572 1024.456665 2427.677246 1019.689575 2430.268066 1015.233643 C 2432.962158 1010.881226 2435.553223 1007.253906 2436.175049 1007.253906 C 2436.796875 1007.253906 2437.522217 1006.217651 2437.833008 1004.870605 C 2438.247803 1003.626953 2440.216553 1000.517822 2442.392822 997.927124 C 2444.465576 995.336426 2446.849121 992.123779 2447.574219 990.672974 C 2448.299561 989.22229 2449.543213 987.771118 2450.269043 987.253296 C 2451.097656 986.838623 2452.755859 984.558838 2453.895996 982.071899 C 2455.139648 979.688232 2456.486572 977.511841 2456.900879 977.20105 C 2457.315674 976.890259 2459.802979 973.67749 2462.60083 969.946777 C 2465.29541 966.216309 2468.611328 961.138428 2469.95874 958.547485 C 2471.40918 955.956787 2473.481934 952.225952 2474.62207 950.256958 C 2475.865723 948.287842 2477.109375 946.422607 2477.523682 946.111816 C 2477.938232 945.800659 2479.285645 943.521118 2480.632324 940.930176 C 2481.979736 938.339478 2483.430664 936.059814 2483.844971 935.748779 C 2484.259521 935.437622 2486.643066 931.810669 2489.130371 927.665527 C 2491.617432 923.520386 2493.897217 920.203979 2494.208252 920.203979 C 2494.519287 920.203979 2495.55542 918.753052 2496.591797 916.888184 C 2497.52417 915.022583 2499.285645 912.12085 2500.426025 910.359131 C 2501.565918 908.597412 2502.80957 906.525024 2503.223877 905.695801 C 2503.638672 904.866821 2505.503906 901.75769 2507.4729 898.960083 C 2509.442139 896.058228 2511.618164 892.430908 2512.447266 890.669556 C 2513.276367 888.907471 2515.038086 885.69519 2516.385254 883.415283 C 2517.732178 881.135376 2522.395752 872.015625 2526.852051 863.207275 C 2531.204346 854.398682 2535.246094 846.937134 2535.660645 846.626343 C 2536.074951 846.31543 2538.251465 842.170044 2540.42749 837.299561 C 2542.603516 832.428955 2547.474365 821.962402 2551.308838 813.982666 C 2555.039307 806.003052 2559.081299 797.194336 2560.117676 794.500122 C 2561.153564 791.805664 2562.397217 789.525757 2562.811523 789.629272 C 2563.32959 789.629272 2563.640625 788.696533 2563.640625 787.556763 C 2563.640625 786.416992 2564.05542 785.276855 2564.677002 784.966064 C 2565.299072 784.654907 2565.713379 783.618652 2565.713379 782.582397 C 2565.713379 781.649902 2566.853271 778.748047 2568.200439 776.157349 C 2569.651367 773.56665 2573.692871 762.892578 2577.216553 752.322266 C 2580.73999 741.751953 2583.641357 732.218018 2583.848633 731.077881 C 2583.952637 729.937988 2584.78125 726.62207 2585.714355 723.823975 C 2586.646729 720.922363 2588.304932 715.015381 2589.548584 710.559082 C 2590.688721 706.206543 2591.621094 701.854248 2591.621094 701.025146 C 2591.621094 700.196289 2592.553467 697.501465 2593.589844 695.014404 C 2594.626221 692.631348 2595.973633 687.449219 2596.491699 683.511475 C 2596.90625 679.677246 2597.631836 676.257568 2598.046143 676.050293 C 2598.564209 675.843018 2599.186279 672.941406 2599.49707 669.625 C 2599.911377 666.412598 2600.843994 661.852539 2601.673096 659.572998 C 2602.502197 657.292969 2603.642334 650.971436 2604.1604 645.582764 C 2604.678711 640.194092 2605.611328 631.799805 2606.129639 626.929199 C 2606.751221 622.058594 2607.476563 615.529541 2607.683594 612.420898 C 2607.994873 609.312012 2608.720215 604.648682 2609.238281 602.057617 C 2609.963623 599.05249 2610.170898 585.373047 2609.860352 562.678223 C 2609.549316 543.610107 2609.031006 526.096436 2608.720215 523.81665 C 2608.40918 521.537109 2607.994873 516.35498 2607.787598 512.416992 C 2607.579834 508.375732 2606.543945 500.706787 2605.611328 495.318115 C 2604.678711 489.929443 2603.53833 483.0896 2603.124023 480.291504 C 2602.606201 477.389893 2601.051758 471.379639 2599.60083 466.81958 C 2598.149902 462.26001 2596.698975 456.456543 2596.491699 453.865967 C 2596.180908 451.275146 2595.248047 447.337158 2594.212158 445.057129 C 2593.279297 442.777344 2592.0354 439.979248 2591.621094 438.8396 C 2591.206787 437.699463 2590.170166 434.694092 2589.444824 432.103516 C 2588.719238 429.512451 2587.268799 425.989258 2586.232422 424.330811 C 2585.195801 422.569336 2584.366943 419.97876 2584.366943 418.320557 C 2584.366943 416.765869 2583.952637 415.522461 2583.330566 415.522461 C 2582.70874 415.522461 2582.294434 414.486084 2582.294434 413.13916 C 2582.294434 411.895508 2581.258301 408.475586 2579.910645 405.67749 C 2578.666992 402.775635 2574.003906 393.345459 2569.651367 384.640625 C 2565.195068 376.039307 2561.568115 368.266846 2561.568115 367.541504 C 2561.568115 366.919922 2560.635498 365.158203 2559.495605 363.707275 C 2558.355225 362.256348 2557.422852 360.80542 2557.422852 360.287354 C 2557.422852 359.873047 2555.557617 356.76416 2553.277588 353.344238 C 2550.997803 349.924316 2549.132568 346.81543 2549.132568 346.296875 C 2549.236084 345.882568 2548.199707 344.639404 2546.956299 343.499268 C 2545.712646 342.359131 2543.950928 339.976074 2543.018311 338.214111 C 2542.085449 336.556152 2540.42749 333.550537 2539.287354 331.581787 C 2538.147461 329.612793 2535.246094 325.985352 2532.96582 323.39502 C 2530.58252 320.804443 2528.406494 317.591797 2527.991699 316.244385 C 2527.681396 315.000732 2526.126221 312.928223 2524.468262 311.580811 C 2522.914063 310.337158 2520.944824 308.368652 2520.115967 307.124512 C 2519.286865 305.881348 2515.556152 301.528809 2511.825439 297.279541 C 2508.094727 293.134521 2502.291504 287.020752 2498.871338 283.807861 C 2495.45166 280.491943 2490.062988 275.413818 2486.954102 272.512207 C 2483.844971 269.610352 2480.943359 267.227051 2480.425049 267.330566 C 2480.010742 267.330566 2479.492676 266.397949 2479.181885 265.258301 C 2478.870605 264.11792 2477.109375 262.25293 2475.243652 261.216553 C 2473.481934 260.076416 2470.787598 258.210938 2469.336914 256.967529 C 2467.885986 255.723877 2465.813477 253.962402 2464.67334 253.029785 C 2463.533203 252.096924 2458.766846 248.677002 2453.999512 245.568115 C 2449.336182 242.459229 2445.294678 239.246338 2444.983398 238.521484 C 2444.672607 237.899658 2443.532959 237.277588 2442.392822 237.277588 C 2441.252686 237.277588 2440.113037 236.55249 2439.801758 235.723389 C 2439.490967 234.894287 2438.558594 234.168701 2437.729492 234.168701 C 2436.900391 234.168701 2435.138672 233.028809 2433.791504 231.681885 C 2432.547852 230.334229 2428.091553 227.536377 2423.946533 225.463867 C 2419.905029 223.391357 2416.485352 221.422363 2416.485352 220.903809 C 2416.485352 220.489502 2415.448975 219.660645 2414.101563 219.038574 C 2412.858154 218.416992 2408.81665 216.447754 2405.085693 214.582764 C 2401.35498 212.717529 2397.002686 210.437256 2395.240723 209.504639 C 2393.479248 208.572021 2392.028076 207.950195 2391.820801 208.053955 C 2391.717529 208.157471 2389.955566 207.535645 2387.986572 206.706787 C 2386.017822 205.877686 2383.945313 205.1521 2383.323242 205.1521 C 2382.70166 205.1521 2382.287109 204.841309 2382.287109 204.323242 C 2382.287109 203.908936 2381.043701 202.97583 2379.385498 202.250732 C 2377.830811 201.525146 2375.862061 201.00708 2375.032715 201.00708 C 2374.203857 200.90332 2372.545898 200.281494 2371.405762 199.348877 C 2370.265625 198.519775 2365.706299 196.654297 2361.249756 195.307129 C 2356.897705 193.856689 2353.062988 192.716553 2352.752197 192.716553 C 2352.441162 192.716553 2350.990723 192.094482 2349.33252 191.265625 C 2347.777832 190.540283 2344.56543 189.607422 2342.078369 189.193115 C 2339.694824 188.882324 2336.896729 188.156738 2335.860352 187.638672 C 2334.927979 187.120605 2330.782471 185.358887 2326.844482 183.908203 C 2322.906738 182.353516 2316.274414 180.488037 2312.336182 179.658936 C 2308.398193 178.830078 2300.418701 177.275635 2294.719238 176.135742 C 2289.019531 174.891846 2283.837891 173.648438 2283.31958 173.337402 C 2282.801514 172.922852 2281.350586 172.508545 2280.210938 172.404785 C 2279.071045 172.30127 2274.407227 171.576172 2269.847656 170.954102 C 2265.288086 170.22876 2260.935303 169.192383 2260.106445 168.467041 C 2259.277344 167.845215 2256.064697 167.430908 2252.852051 167.53418 C 2249.639648 167.637939 2246.427246 167.223389 2245.70166 166.705322 C 2245.080078 166.187012 2243.525635 165.97998 2242.385742 166.290527 C 2241.24585 166.601807 2239.691406 166.394287 2238.965576 165.876221 C 2238.343994 165.46167 2235.649658 164.736084 2233.058838 164.321777 C 2230.468018 163.906982 2222.799316 163.388672 2215.959961 163.285645 C 2209.119873 163.077881 2202.591309 162.456543 2201.451416 161.834473 C 2200.104248 161.212646 2184.456055 160.901855 2158.962891 160.901855 C 2136.682373 161.005127 2116.681396 161.419922 2114.401855 161.834473 Z"/>
    </g>
</svg>
